<svg width="32" height="32" viewBox="0 0 32 32" fill="none" xmlns="http://www.w3.org/2000/svg">
  <rect width="32" height="32" rx="8" fill="#1E3A8A"/>
  <path d="M8 18C8 15.7909 9.79086 14 12 14H20C22.2091 14 24 15.7909 24 18V21C24 23.2091 22.2091 25 20 25H12C9.79086 25 8 23.2091 8 21V18Z" fill="#14B8A6"/>
  <path d="M10 11C10 9.89543 10.8954 9 12 9H20C21.1046 9 22 9.89543 22 11V14H10V11Z" fill="#F59E0B"/>
  <path d="M16 7L18 9H14L16 7Z" fill="#F59E0B"/>
  <path d="M13 18.75C13 18.3358 13.3358 18 13.75 18H18.25C18.6642 18 19 18.3358 19 18.75C19 19.1642 18.6642 19.5 18.25 19.5H13.75C13.3358 19.5 13 19.1642 13 18.75Z" fill="#1E3A8A"/>
  <path d="M13 21.25C13 20.8358 13.3358 20.5 13.75 20.5H18.25C18.6642 20.5 19 20.8358 19 21.25C19 21.6642 18.6642 22 18.25 22H13.75C13.3358 22 13 21.6642 13 21.25Z" fill="#1E3A8A"/>
</svg>